<svg xmlns="http://www.w3.org/2000/svg" xmlns:xlink="http://www.w3.org/1999/xlink" fill="none" version="1.1" width="16" height="16" viewBox="0 0 16 16"><defs><clipPath id="master_svg0_260_154693"><rect x="0" y="0" width="16" height="16" rx="0"/></clipPath></defs><g clip-path="url(#master_svg0_260_154693)"><g><path d="M4.87167,4.940289095367431C5.09754,4.230340095367431,6.08183,4.216508095367431,6.32697,4.9198370953674315L7.5045,8.298350095367432L10.6038,9.310540095367433C11.312,9.54183009536743,11.3183,10.526180095367431,10.6131,10.76592009536743L7.43229,11.847310095367432L6.32689,15.018800095367432C6.08174,15.722100095367432,5.09744,15.70830009536743,4.87158,14.998300095367432L3.8833,11.89177009536743L0.514279,10.68859009536743C-0.187173,10.438080095367432,-0.165798,9.453940095367432,0.545883,9.233520095367432L3.82929,8.216610095367432L4.87167,4.940289095367431Z" fill-rule="evenodd" fill="#3670F7" fill-opacity="1"/></g><g><path d="M12.238350190734863,1.300076011920929C12.405010190734863,0.6334860119209289,13.337570190734864,0.633268011920929,13.504220190734863,1.2997800119209288L13.892130190734864,2.851210011920929L15.442560190734863,3.238840011920929C16.109150190734862,3.405500011920929,16.109370190734865,4.338060011920929,15.442860190734862,4.504710011920929L13.891750190734864,4.892540011920929L13.504200190734863,6.4425600119209285C13.337530190734864,7.109170011920929,12.404930190734863,7.109350011920929,12.238330190734864,6.442800011920929L11.850790190734863,4.892410011920929L10.300076190734863,4.504690011920928C9.633467190734864,4.3380200119209285,9.633290190734863,3.405420011920929,10.299835190734862,3.238810011920929L11.850550190734863,2.851200011920929L12.238350190734863,1.300076011920929Z" fill-rule="evenodd" fill="#3670F7" fill-opacity="1"/></g></g></svg>